<?xml version="1.0" standalone="no"?>
<!DOCTYPE svg PUBLIC "-//W3C//DTD SVG 20010904//EN"
 "http://www.w3.org/TR/2001/REC-SVG-20010904/DTD/svg10.dtd">
<svg version="1.0" xmlns="http://www.w3.org/2000/svg"
 width="1024.000000pt" height="1024.000000pt" viewBox="0 0 1024.000000 1024.000000"
 preserveAspectRatio="xMidYMid meet">
<metadata>
Created by potrace 1.16, written by Peter Selinger 2001-2019
</metadata>
<g transform="translate(0.000000,1024.000000) scale(0.100000,-0.100000)"
fill="#000000" stroke="none">
<path d="M4845 7070 c-3 -5 -30 -10 -60 -10 -30 0 -57 -4 -60 -10 -3 -5 -17
-10 -30 -10 -13 0 -27 -4 -30 -10 -3 -5 -15 -10 -25 -10 -11 0 -35 -9 -55 -20
-20 -11 -46 -20 -58 -20 -24 0 -145 -57 -175 -82 -9 -8 -33 -22 -53 -31 -20
-9 -42 -23 -49 -32 -7 -8 -18 -15 -24 -15 -7 0 -25 -13 -41 -30 -16 -16 -34
-30 -40 -30 -6 0 -29 -18 -50 -40 -21 -22 -44 -40 -50 -40 -5 0 -145 -135
-310 -300 -165 -165 -305 -300 -310 -300 -6 0 -46 -36 -90 -80 -44 -44 -84
-80 -90 -80 -6 0 -29 -18 -50 -40 -21 -22 -44 -40 -50 -40 -7 0 -20 -9 -30
-20 -10 -11 -23 -20 -30 -20 -7 0 -20 -9 -30 -20 -10 -11 -24 -20 -30 -20 -7
0 -18 -7 -25 -15 -16 -19 -68 -45 -91 -45 -10 0 -21 -4 -24 -10 -4 -6 -67 -10
-155 -10 -88 0 -151 4 -155 10 -3 6 -14 10 -23 10 -22 0 -157 67 -172 85 -7 8
-18 15 -24 15 -7 0 -25 14 -41 30 -16 17 -34 30 -40 30 -6 0 -33 23 -60 50
-27 28 -54 50 -60 50 -5 0 -90 80 -187 177 l-178 178 -162 -163 -163 -162 185
-185 c102 -102 190 -185 195 -185 6 0 33 -22 60 -50 27 -27 54 -50 60 -50 6 0
24 -13 40 -30 16 -16 34 -30 41 -30 6 0 17 -6 23 -14 14 -17 270 -146 288
-146 7 0 28 -9 48 -20 20 -11 44 -20 55 -20 10 0 22 -4 25 -10 3 -5 26 -10 50
-10 24 0 47 -4 50 -10 4 -6 63 -10 145 -10 82 0 141 4 145 10 3 6 21 10 40 10
19 0 37 5 40 10 3 6 14 10 25 10 10 0 44 14 75 30 31 17 65 30 75 30 11 0 22
5 25 10 3 6 14 10 24 10 22 0 116 47 131 65 7 8 18 15 25 15 6 0 20 9 30 20
10 11 23 20 30 20 7 0 20 9 30 20 10 11 23 20 30 20 6 0 29 18 50 40 21 22 44
40 50 40 6 0 46 36 90 80 44 44 84 80 90 80 5 0 145 135 310 300 165 165 305
300 310 300 6 0 29 18 50 40 21 22 44 40 50 40 6 0 24 14 40 30 16 17 34 30
41 30 6 0 17 7 24 15 7 9 33 25 56 35 24 11 45 24 49 29 12 21 70 41 116 41
26 0 51 5 54 10 3 6 37 10 75 10 38 0 72 -4 75 -10 3 -5 28 -10 54 -10 48 0
137 -36 161 -65 7 -8 18 -15 25 -15 6 0 20 -9 30 -20 10 -11 23 -20 30 -20 7
0 20 -9 30 -20 10 -11 23 -20 30 -20 6 0 29 -18 50 -40 21 -22 44 -40 50 -40
5 0 136 -126 290 -280 154 -154 284 -280 290 -280 6 0 60 -49 120 -110 60 -60
114 -110 120 -110 6 0 29 -18 50 -40 21 -22 44 -40 50 -40 7 0 20 -9 30 -20
10 -11 24 -20 30 -20 7 0 18 -7 25 -15 7 -9 32 -25 55 -35 23 -10 48 -26 55
-35 7 -8 22 -15 35 -15 12 0 30 -9 40 -20 10 -11 28 -20 41 -20 13 0 26 -4 29
-10 3 -5 14 -10 25 -10 10 0 44 -13 75 -30 35 -18 72 -30 95 -30 22 0 42 -4
45 -10 4 -6 63 -10 145 -10 82 0 141 4 145 10 3 6 21 10 40 10 19 0 37 5 40
10 3 6 21 10 39 10 20 0 40 8 51 20 10 11 28 20 41 20 13 0 26 5 29 10 3 6 14
10 23 10 22 0 237 107 253 126 6 8 17 14 23 14 7 0 25 14 41 30 16 17 34 30
40 30 6 0 29 18 50 40 21 22 44 40 50 40 5 0 136 126 290 280 154 154 284 280
290 280 6 0 55 45 110 100 55 55 105 100 111 100 6 0 17 7 24 16 12 13 1 27
-73 102 l-86 87 -3 95 c-2 77 -6 95 -18 95 -11 0 -15 -13 -16 -55 -1 -63 -18
-73 -44 -26 -39 71 -75 57 -210 -78 -52 -53 -99 -96 -105 -96 -6 0 -136 -126
-290 -280 -154 -154 -285 -280 -290 -280 -6 0 -29 -18 -50 -40 -21 -22 -44
-40 -50 -40 -6 0 -24 -13 -40 -30 -16 -16 -34 -30 -41 -30 -6 0 -17 -7 -24
-15 -15 -18 -150 -85 -172 -85 -9 0 -20 -4 -23 -10 -4 -6 -67 -10 -155 -10
-88 0 -151 4 -155 10 -3 6 -17 10 -29 10 -13 0 -29 7 -36 15 -7 9 -32 25 -55
35 -23 10 -48 26 -55 35 -7 8 -18 15 -25 15 -6 0 -20 9 -30 20 -10 11 -23 20
-30 20 -6 0 -29 18 -50 40 -21 22 -44 40 -50 40 -6 0 -60 50 -120 110 -60 61
-114 110 -120 110 -6 0 -136 126 -290 280 -154 154 -285 280 -290 280 -6 0
-29 18 -50 40 -21 22 -44 40 -50 40 -7 0 -20 9 -30 20 -10 11 -23 20 -30 20
-7 0 -20 9 -30 20 -10 11 -24 20 -30 20 -7 0 -18 7 -25 15 -15 18 -150 85
-172 85 -9 0 -20 5 -23 10 -3 6 -15 10 -25 10 -11 0 -35 9 -55 20 -20 11 -44
20 -55 20 -10 0 -22 5 -25 10 -3 6 -17 10 -30 10 -13 0 -27 5 -30 10 -3 6 -30
10 -60 10 -30 0 -57 5 -60 10 -3 6 -33 10 -65 10 -32 0 -62 -4 -65 -10z M4105
5530 c-3 -5 -24 -10 -45 -10 -22 0 -55 -9 -75 -20 -20 -11 -44 -20 -55 -20
-10 0 -22 -4 -25 -10 -3 -5 -18 -10 -33 -10 -29 0 -243 -102 -263 -126 -6 -8
-17 -14 -24 -14 -6 0 -20 -9 -30 -20 -10 -11 -23 -20 -30 -20 -7 0 -20 -9 -30
-20 -10 -11 -23 -20 -29 -20 -7 0 -34 -22 -61 -50 -27 -27 -54 -50 -60 -50 -5
0 -145 -135 -310 -300 -165 -165 -305 -300 -310 -300 -6 0 -46 -36 -90 -80
-44 -44 -84 -80 -90 -80 -6 0 -29 -18 -50 -40 -21 -22 -44 -40 -50 -40 -7 0
-20 -9 -30 -20 -10 -11 -24 -20 -30 -20 -7 0 -18 -7 -25 -15 -15 -18 -150 -85
-172 -85 -9 0 -20 -4 -23 -10 -8 -13 -262 -13 -270 0 -3 6 -21 10 -40 10 -19
0 -37 5 -40 10 -3 6 -17 10 -30 10 -13 0 -27 5 -30 10 -3 6 -15 10 -25 10 -11
0 -36 9 -55 20 -20 11 -40 18 -46 15 -5 -4 -9 -61 -9 -128 l0 -121 -66 -67
c-37 -37 -64 -72 -60 -77 9 -15 107 -62 127 -62 10 0 21 -4 24 -10 3 -5 17
-10 30 -10 13 0 27 -4 30 -10 3 -5 15 -10 25 -10 11 0 35 -9 55 -20 20 -11 53
-20 75 -20 21 0 42 -4 45 -10 4 -6 57 -10 125 -10 68 0 121 4 125 10 3 6 21
10 40 10 19 0 37 5 40 10 3 6 21 10 39 10 20 0 40 8 51 20 10 11 28 20 41 20
13 0 26 5 29 10 3 6 14 10 23 10 22 0 237 107 253 126 6 8 17 14 24 14 6 0 20
9 30 20 10 11 23 20 30 20 6 0 29 18 50 40 21 22 44 40 50 40 6 0 46 36 90 80
44 44 84 80 90 80 5 0 145 135 310 300 165 165 305 300 310 300 6 0 33 23 60
50 27 28 54 50 61 50 6 0 19 9 29 20 10 11 23 20 30 20 7 0 20 9 30 20 10 11
24 20 30 20 7 0 18 7 25 15 18 22 111 65 141 65 15 0 31 5 34 10 4 6 53 10
115 10 62 0 111 -4 115 -10 3 -5 18 -10 33 -10 30 0 163 -63 182 -85 7 -8 18
-15 25 -15 6 0 20 -9 30 -20 10 -11 23 -20 30 -20 6 0 24 -13 40 -30 16 -16
34 -30 40 -30 6 0 42 -31 80 -70 38 -38 74 -70 80 -70 5 0 150 -139 320 -310
170 -170 315 -310 320 -310 6 0 33 -22 60 -50 27 -27 54 -50 60 -50 6 0 24
-13 40 -30 16 -16 34 -30 40 -30 7 0 20 -9 30 -20 10 -11 24 -20 30 -20 7 0
18 -6 24 -14 20 -24 234 -126 263 -126 15 0 30 -4 33 -10 3 -5 16 -10 29 -10
13 0 31 -9 41 -20 14 -15 31 -20 71 -20 29 0 56 -4 59 -10 4 -6 57 -10 125
-10 68 0 121 4 125 10 3 6 21 10 40 10 19 0 37 5 40 10 3 6 21 10 39 10 20 0
40 8 51 20 10 11 28 20 41 20 13 0 26 5 29 10 3 6 14 10 23 10 22 0 237 107
253 126 6 8 17 14 23 14 7 0 25 14 41 30 16 17 34 30 40 30 6 0 29 18 50 40
21 22 44 40 50 40 5 0 141 131 300 290 159 160 294 290 300 290 6 0 51 41 100
90 49 50 94 90 100 90 6 0 29 18 50 40 21 22 44 40 50 40 6 0 24 14 40 30 16
16 34 30 41 30 6 0 17 7 24 15 18 22 152 85 181 85 14 0 29 4 35 10 5 5 43 10
84 12 91 4 87 -11 80 258 l-5 195 -69 3 c-39 2 -74 -2 -80 -8 -5 -5 -27 -10
-48 -10 -20 0 -53 -9 -73 -20 -20 -11 -44 -20 -55 -20 -10 0 -22 -4 -25 -10
-3 -5 -18 -10 -33 -10 -29 0 -283 -122 -303 -146 -6 -8 -17 -14 -23 -14 -7 0
-25 -13 -41 -30 -16 -16 -34 -30 -40 -30 -6 0 -29 -18 -50 -40 -21 -22 -44
-40 -50 -40 -6 0 -51 -40 -100 -90 -49 -49 -94 -90 -100 -90 -6 0 -141 -130
-300 -290 -159 -159 -295 -290 -300 -290 -6 0 -29 -18 -50 -40 -21 -22 -44
-40 -50 -40 -6 0 -24 -13 -40 -30 -16 -16 -34 -30 -41 -30 -6 0 -17 -7 -24
-15 -15 -18 -150 -85 -172 -85 -9 0 -20 -4 -23 -10 -4 -6 -60 -10 -135 -10
-75 0 -131 4 -135 10 -3 6 -19 10 -34 10 -30 0 -123 43 -141 65 -7 8 -18 15
-25 15 -6 0 -20 9 -30 20 -10 11 -23 20 -30 20 -6 0 -24 14 -40 30 -16 17 -34
30 -40 30 -6 0 -33 23 -60 50 -27 28 -54 50 -60 50 -5 0 -150 140 -320 310
-170 171 -315 310 -320 310 -6 0 -42 32 -80 70 -38 39 -74 70 -80 70 -6 0 -24
14 -40 30 -16 17 -34 30 -40 30 -7 0 -20 9 -30 20 -10 11 -24 20 -30 20 -7 0
-18 6 -24 14 -14 17 -230 126 -248 126 -7 0 -28 9 -48 20 -20 11 -44 20 -55
20 -10 0 -22 5 -25 10 -3 6 -17 10 -30 10 -13 0 -27 5 -30 10 -3 6 -26 10 -50
10 -24 0 -47 5 -50 10 -3 6 -50 10 -105 10 -55 0 -102 -4 -105 -10z M3385
3990 c-3 -5 -26 -10 -50 -10 -24 0 -47 -4 -50 -10 -3 -5 -16 -10 -29 -10 -13
0 -31 -9 -41 -20 -10 -11 -30 -20 -44 -20 -29 0 -243 -103 -262 -126 -6 -8
-17 -14 -24 -14 -6 0 -20 -9 -30 -20 -10 -11 -23 -20 -30 -20 -7 0 -20 -9 -30
-20 -10 -11 -23 -20 -29 -20 -7 0 -34 -22 -61 -50 -27 -27 -54 -50 -60 -50 -5
0 -141 -130 -300 -290 -159 -159 -294 -290 -300 -290 -6 0 -51 -40 -100 -90
-49 -49 -94 -90 -100 -90 -6 0 -24 -13 -40 -30 -16 -16 -34 -30 -40 -30 -6 0
-24 -13 -40 -30 -16 -16 -34 -30 -41 -30 -6 0 -17 -7 -24 -15 -7 -8 -50 -33
-96 -55 -46 -23 -86 -46 -90 -52 -4 -5 32 -49 80 -97 l86 -86 0 -92 c0 -91 9
-118 33 -94 6 6 21 11 33 11 13 0 26 5 29 10 3 6 14 10 23 10 22 0 197 87 212
106 7 8 18 14 24 14 7 0 25 14 41 30 16 17 34 30 40 30 6 0 24 13 40 30 16 17
34 30 40 30 6 0 51 41 100 90 49 50 94 90 100 90 6 0 141 131 300 290 159 160
295 290 300 290 6 0 33 23 60 50 27 28 54 50 61 50 6 0 19 9 29 20 10 11 23
20 30 20 7 0 20 9 30 20 10 11 24 20 30 20 7 0 18 7 25 15 15 18 109 65 131
65 10 0 21 5 24 10 4 6 60 10 135 10 75 0 131 -4 135 -10 3 -5 19 -10 34 -10
30 0 123 -43 141 -65 7 -8 18 -15 25 -15 6 0 20 -9 30 -20 10 -11 23 -20 30
-20 6 0 24 -13 40 -30 16 -16 34 -30 40 -30 6 0 29 -18 50 -40 21 -22 44 -40
50 -40 5 0 150 -139 320 -310 170 -170 315 -310 320 -310 6 0 42 -31 80 -70
38 -38 74 -70 80 -70 6 0 29 -18 50 -40 21 -22 44 -40 50 -40 7 0 20 -9 30
-20 10 -11 24 -20 30 -20 7 0 18 -6 24 -14 18 -21 272 -146 298 -146 11 0 47
-13 78 -30 41 -21 71 -30 105 -30 27 0 52 -4 55 -10 8 -13 202 -13 210 0 3 6
21 10 40 10 19 0 37 5 40 10 3 6 17 10 30 10 13 0 27 5 30 10 3 6 15 10 25 10
11 0 35 9 55 20 20 11 44 20 55 20 10 0 22 5 25 10 3 5 14 10 23 10 22 0 157
67 172 85 7 8 18 15 25 15 6 0 20 9 30 20 10 11 23 20 30 20 7 0 20 9 30 20
10 11 23 20 29 20 7 0 34 22 61 50 27 28 54 50 60 50 5 0 141 131 300 290 159
160 294 290 300 290 6 0 51 41 100 90 49 50 94 90 100 90 6 0 29 18 50 40 21
22 44 40 50 40 7 0 20 9 30 20 10 11 24 20 30 20 7 0 18 7 25 15 15 18 150 85
172 85 9 0 20 5 23 10 4 6 60 10 135 10 75 0 131 -4 135 -10 3 -5 19 -10 34
-10 29 0 86 -24 96 -41 4 -5 25 -18 49 -29 23 -10 49 -26 56 -35 7 -8 18 -15
24 -15 7 0 30 -18 51 -40 21 -22 44 -40 49 -40 6 0 27 -17 48 -37 37 -36 38
-36 58 -18 16 14 23 15 34 6 22 -18 36 -5 36 32 0 27 17 49 117 149 l117 118
-44 45 c-24 25 -49 45 -55 45 -6 0 -29 18 -50 40 -21 22 -44 40 -51 40 -6 0
-17 7 -24 15 -7 9 -29 23 -49 32 -20 9 -44 23 -53 31 -26 22 -109 62 -129 62
-10 0 -21 5 -24 10 -3 5 -15 10 -25 10 -11 0 -35 9 -55 20 -20 11 -44 20 -55
20 -10 0 -22 5 -25 10 -3 6 -17 10 -30 10 -13 0 -27 5 -30 10 -3 6 -21 10 -40
10 -19 0 -37 5 -40 10 -8 13 -242 13 -250 0 -3 -5 -26 -10 -50 -10 -24 0 -47
-4 -50 -10 -3 -5 -16 -10 -29 -10 -13 0 -31 -9 -41 -20 -10 -11 -30 -20 -44
-20 -28 0 -283 -123 -302 -146 -6 -8 -17 -14 -24 -14 -6 0 -20 -9 -30 -20 -10
-11 -23 -20 -30 -20 -6 0 -29 -18 -50 -40 -21 -22 -44 -40 -50 -40 -6 0 -51
-40 -100 -90 -49 -49 -94 -90 -100 -90 -6 0 -141 -130 -300 -290 -159 -159
-295 -290 -300 -290 -6 0 -33 -22 -60 -50 -27 -27 -54 -50 -61 -50 -6 0 -19
-9 -29 -20 -10 -11 -23 -20 -30 -20 -7 0 -20 -9 -30 -20 -10 -11 -24 -20 -30
-20 -7 0 -18 -7 -25 -15 -18 -22 -111 -65 -141 -65 -15 0 -31 -4 -34 -10 -4
-6 -53 -10 -115 -10 -62 0 -111 4 -115 10 -3 6 -18 10 -33 10 -30 0 -163 63
-182 85 -7 8 -18 15 -25 15 -6 0 -20 9 -30 20 -10 11 -23 20 -30 20 -6 0 -29
18 -50 40 -21 22 -44 40 -50 40 -6 0 -42 32 -80 70 -38 39 -74 70 -80 70 -5 0
-150 140 -320 310 -170 171 -315 310 -320 310 -6 0 -29 18 -50 40 -21 22 -44
40 -50 40 -6 0 -24 14 -40 30 -16 17 -34 30 -40 30 -7 0 -20 9 -30 20 -10 11
-24 20 -30 20 -7 0 -18 7 -25 15 -15 18 -150 85 -172 85 -9 0 -20 5 -23 10 -3
6 -15 10 -25 10 -11 0 -35 9 -55 20 -20 11 -42 20 -50 20 -8 0 -30 9 -50 20
-20 11 -53 20 -75 20 -21 0 -42 5 -45 10 -4 6 -57 10 -125 10 -68 0 -121 -4
-125 -10z"/>
</g>
</svg>
