<svg xmlns="http://www.w3.org/2000/svg" width="820" height="380" viewBox="0 0 820 380">
  <defs>
    <filter id="glow" x="-60%" y="-60%" width="220%" height="220%">
      <feDropShadow dx="0" dy="0" stdDeviation="7" flood-color="#22d3ee" flood-opacity="0.5"/>
    </filter>
  </defs>
  <!-- wave icon centered on top -->
  <g transform="translate(322,30) scale(7)" fill="none" stroke="#22d3ee" stroke-width="2"
     stroke-linecap="round" stroke-linejoin="round" filter="url(#glow)">
    <path d="M2 12c2 0 2-2 4-2s2 2 4 2 2-2 4-2 2 2 4 2 2-2 4-2"/>
    <path d="M2 17c2 0 2-2 4-2s2 2 4 2 2-2 4-2 2 2 4 2 2-2 4-2"/>
  </g>
  <text x="410" y="280" text-anchor="middle" font-family="Avenir Next, Helvetica Neue, sans-serif"
        font-weight="800" font-size="96" fill="#ffffff" letter-spacing="2">pumpfoil<tspan fill="#22d3ee">.org</tspan></text>
  <text x="410" y="346" text-anchor="middle" font-family="Avenir Next, Helvetica Neue, sans-serif"
        font-weight="600" font-size="38" fill="#94a3b8" letter-spacing="9">TRACK EVERY PUMP</text>
</svg>
